<svg width="126" height="126" viewBox="0 0 126 126" fill="none" xmlns="http://www.w3.org/2000/svg">
<path d="M54.0521 0.00217272C55.0648 0.00457214 56.0775 0.00447015 57.0902 0.00412585C58.7946 0.00361013 60.4991 0.00468422 62.2035 0.00705554C63.8892 0.00939484 65.5753 0.0115109 67.2611 0.0119383H69.181C72.955 0.0127651 76.7293 0.0150356 80.5033 0.0187743C84.1679 0.0224004 87.8328 0.0258935 91.4974 0.0275633C91.6104 0.0276152 91.7237 0.0275099 91.8402 0.0275633C92.9759 0.0280833 94.1117 0.0280492 95.2474 0.0285399C97.561 0.0295399 99.8752 0.0312655 102.189 0.0324462C102.295 0.0325003 102.402 0.0323904 102.512 0.0324462C109.606 0.0360701 116.7 0.0423936 123.794 0.0490477C123.796 0.280735 123.797 0.512669 123.798 0.74436C123.799 0.873266 123.799 1.00218 123.8 1.13499C123.788 1.85279 123.598 2.51689 123.41 3.20432C123.369 3.36326 123.326 3.52202 123.283 3.68577C122.474 6.46231 120.512 8.93189 118.045 10.3362C117.064 10.8695 116.05 11.3383 114.971 11.6174C114.886 11.6393 114.802 11.6612 114.714 11.6838C113.487 11.9571 112.254 11.9171 111.005 11.9143C110.744 11.9147 110.484 11.9147 110.223 11.9153C109.508 11.9166 108.793 11.9168 108.078 11.9162C107.307 11.9159 106.535 11.9172 105.763 11.9182C104.426 11.9198 103.089 11.92 101.752 11.9201C99.8162 11.9203 97.8797 11.9225 95.9437 11.925C95.0407 11.9262 94.1377 11.9269 93.2347 11.928C93.1443 11.9281 93.0534 11.9278 92.9603 11.928C90.8097 11.9305 88.6588 11.9332 86.5081 11.9348C86.3673 11.9349 86.3668 11.9347 86.223 11.9348C84.03 11.9364 81.8368 11.9375 79.6439 11.9387C78.8838 11.9391 78.1237 11.9393 77.3636 11.9397C77.2698 11.9397 77.176 11.9406 77.0794 11.9406C74.935 11.9418 72.7903 11.9429 70.6458 11.9455C70.5556 11.9456 70.4654 11.9454 70.3724 11.9455C69.4705 11.9466 68.5682 11.9482 67.6663 11.9494C67.2227 11.9501 66.779 11.9508 66.3353 11.9514C66.248 11.9515 66.1606 11.9513 66.0706 11.9514C64.6699 11.9532 63.2692 11.9536 61.8685 11.9533C60.4584 11.9531 59.0481 11.9547 57.638 11.9573C56.8754 11.9586 56.1126 11.9593 55.3499 11.9582C54.6499 11.9573 53.9493 11.9579 53.2494 11.9602C52.9981 11.9607 52.7467 11.9601 52.4954 11.9592C50.1003 11.9513 47.8047 12.2807 45.474 12.841C45.3044 12.8811 45.1347 12.9211 44.9652 12.9612C43.2114 13.3798 41.4625 13.8345 39.7835 14.509C39.666 14.5556 39.5482 14.6026 39.4271 14.6506C34.8613 16.4755 30.6594 18.9209 27.055 22.3606C26.7765 22.6255 26.4933 22.882 26.2054 23.136C25.3308 23.9195 24.5579 24.782 23.8001 25.6828C23.6957 25.8064 23.6957 25.8067 23.5892 25.9328C22.3347 27.4294 21.2452 29.0079 20.2201 30.678C20.1614 30.7735 20.1027 30.8696 20.0423 30.968C19.3403 32.1248 18.7232 33.3236 18.1253 34.5403C18.0614 34.6698 17.9978 34.7994 17.932 34.9328C17.5776 35.6664 17.278 36.3998 17.016 37.1731C16.9032 37.492 16.7758 37.7966 16.638 38.1047C16.3432 38.7717 16.1128 39.4568 15.888 40.1516C15.8223 40.3541 15.8222 40.3542 15.7552 40.5608C15.225 42.2311 14.7935 43.9396 14.4652 45.6643C14.5865 45.5702 14.7083 45.476 14.8333 45.3791C15.9168 44.5572 17.0286 43.8342 18.2132 43.175C18.4005 43.0704 18.4011 43.0699 18.5921 42.9631C19.344 42.5521 20.1056 42.1937 20.8958 41.8674C21.2361 41.7232 21.5666 41.5655 21.8978 41.4006C25.9473 39.5002 30.4204 38.8043 34.8304 38.8156C35.1087 38.8159 35.3871 38.8155 35.6654 38.8156C36.4282 38.8161 37.1916 38.8181 37.9544 38.8196C38.7779 38.8209 39.6017 38.8208 40.4251 38.8215C41.7593 38.8227 43.0939 38.8245 44.4281 38.8264C46.6816 38.8295 48.9352 38.8317 51.1888 38.8332C52.0571 38.8338 52.926 38.8336 53.7943 38.8342C53.8906 38.8343 53.987 38.8351 54.0863 38.8352C56.3809 38.8368 58.6755 38.838 60.9701 38.8401C61.1206 38.8402 61.1212 38.8409 61.2747 38.841C63.6149 38.8431 65.9551 38.8449 68.2953 38.8479C68.4461 38.8481 68.4462 38.8487 68.5999 38.8489C69.4107 38.8499 70.2218 38.8507 71.0326 38.8518C74.3802 38.8561 77.7279 38.8591 81.0755 38.8606H82.7787C84.2734 38.8613 85.7682 38.8637 87.263 38.8664C88.7676 38.8692 90.2731 38.8704 91.7777 38.8703C92.5915 38.8703 93.4053 38.8719 94.2191 38.8742C94.9659 38.8764 95.7134 38.8763 96.4603 38.8752C96.7287 38.8751 96.9975 38.8758 97.266 38.8772C100.294 38.8915 103.319 38.5378 106.114 37.2864C106.531 37.1196 106.532 37.1194 106.961 37.0471C107.128 37.0179 107.129 37.0183 107.299 36.9885C107.341 36.9017 107.384 36.8142 107.427 36.7248C107.649 36.5997 107.649 36.5992 107.941 36.467C108.049 36.4167 108.157 36.3665 108.269 36.3147C108.386 36.2603 108.504 36.2066 108.625 36.1506C111.416 34.8188 113.785 32.9931 115.993 30.8098C116.056 30.7481 116.119 30.6859 116.184 30.6223C117.044 29.7737 117.817 28.8817 118.551 27.9172C118.652 27.7878 118.754 27.6589 118.858 27.5256C119.943 26.121 120.894 24.6177 121.748 23.0539C122.883 20.7704 123.949 18.531 124.106 17.8283C124.593 15.7416 125.22 13.7651 125.52 11.6174C125.543 11.4467 125.543 11.4459 125.566 11.2717C125.581 11.1661 125.596 11.0602 125.612 10.9514C125.625 10.8577 125.638 10.7637 125.652 10.6672C125.712 10.434 125.713 10.4339 125.968 10.1711C125.972 17.7987 125.976 25.4263 125.979 33.0539C125.979 33.1669 125.979 33.2803 125.979 33.3967C125.98 35.8513 125.98 38.3064 125.981 40.761C125.981 41.9646 125.981 43.1687 125.982 44.3723C125.982 44.4918 125.982 44.6114 125.982 44.7346C125.983 48.6155 125.985 52.4972 125.988 56.3781C125.99 60.3671 125.991 64.356 125.992 68.3449V70.3723C125.992 72.1565 125.994 73.9407 125.995 75.7248C125.997 77.5196 125.997 79.3148 125.996 81.1096C125.996 82.175 125.997 83.2405 125.998 84.3059C125.999 85.1029 125.999 85.9005 125.998 86.6975C125.998 87.0188 125.999 87.3401 125.999 87.6614C126.004 89.7325 125.966 91.7178 125.436 93.7297C125.299 94.2922 125.195 94.8595 125.088 95.4289C124.759 97.1576 124.402 98.8787 123.699 100.492C123.45 101.084 123.255 101.695 123.054 102.305C122.907 102.695 122.731 103.02 122.515 103.373C122.421 103.593 122.326 103.813 122.237 104.034C122.115 104.334 121.988 104.63 121.86 104.926C121.817 105.024 121.775 105.123 121.731 105.225C121.655 105.398 121.575 105.57 121.493 105.739C121.093 106.348 120.475 107.422 120.213 107.852C120.102 108.035 120.102 108.036 119.989 108.223C119.39 109.197 118.747 110.105 118.039 110.998C117.955 111.11 117.871 111.223 117.784 111.338C117.211 112.093 116.594 112.801 115.96 113.501C115.638 113.858 115.324 114.223 115.011 114.588C114.599 115.06 114.172 115.486 113.701 115.894C113.412 116.146 113.137 116.41 112.861 116.675C110.773 118.605 108.361 120.156 105.892 121.515C105.813 121.559 105.733 121.603 105.652 121.649C104.225 122.435 102.738 123.034 101.226 123.622C100.969 123.724 100.714 123.833 100.46 123.943C98.4362 124.819 96.2024 125.189 94.0482 125.565C93.8938 125.592 93.7394 125.62 93.5804 125.648C91.8623 125.935 90.1489 126.004 88.4105 126C88.2298 126 88.0492 126 87.8685 126C87.3771 126.001 86.8852 126 86.3939 125.999C85.8618 125.999 85.3293 125.999 84.7972 125.999C83.8774 125.999 82.9572 125.999 82.0374 125.998C80.7075 125.997 79.3771 125.996 78.0472 125.996C75.889 125.996 73.7308 125.996 71.5726 125.994C69.477 125.993 67.381 125.992 65.2855 125.991C65.155 125.991 65.0245 125.991 64.89 125.991C63.8679 125.991 62.8457 125.991 61.8236 125.99C56.8213 125.989 51.819 125.986 46.8167 125.984V90.0969C43.817 90.2721 43.8164 90.2719 40.8382 90.5979C40.5967 90.6313 40.5966 90.6312 40.3499 90.6653C33.0119 91.711 25.5529 93.9753 19.8363 99.0354C19.7397 99.1203 19.6428 99.2057 19.5433 99.2932C18.0151 100.672 16.5947 102.142 15.3831 103.822C15.2438 104.016 15.1015 104.207 14.9593 104.398C14.011 105.694 13.2197 107.092 12.4994 108.533C12.4583 108.614 12.4177 108.695 12.3753 108.778C11.6491 110.27 11.5957 111.715 11.5882 113.348C11.5799 115.158 11.4795 116.827 10.7249 118.499C10.6862 118.587 10.6477 118.675 10.6078 118.766C9.25984 121.763 7.15884 124.046 4.11654 125.237C2.9854 125.658 1.83856 125.995 0.62826 125.988C0.513669 125.987 0.398662 125.987 0.280603 125.987C0.193455 125.986 0.105744 125.984 0.015955 125.984C0.0137574 120.107 0.0122543 114.23 0.0110722 108.353C0.0110546 108.265 0.0110903 108.178 0.0110722 108.088C0.0106891 106.184 0.0104202 104.279 0.0100956 102.375C0.00993619 101.441 0.00928818 100.507 0.00911905 99.5725C0.00910236 99.4797 0.00913625 99.3868 0.00911905 99.2912C0.00857801 96.2997 0.00737215 93.3072 0.00618936 90.3156C0.00497223 87.2314 0.00449321 84.147 0.00423624 81.0627C0.00408436 79.2496 0.00328662 77.4364 0.00228311 75.6233C-0.00436614 63.1751 -0.00355616 63.1747 0.0618534 58.0686C0.0652585 57.7945 0.0677065 57.5204 0.0706425 57.2463C0.123793 52.601 0.12412 52.6004 0.655603 50.5285C0.926857 49.0691 1.10084 47.6093 1.55111 46.1897C1.71657 45.6492 1.83021 45.1276 1.91049 44.5686C2.06021 43.6306 2.30604 42.7308 2.56576 41.8196C2.61018 41.6599 2.65476 41.4996 2.70053 41.3352C2.90238 40.6177 3.10945 39.9088 3.37435 39.2131C3.48486 38.9177 3.58456 38.6191 3.68392 38.3196C3.72073 38.2092 3.75733 38.0983 3.79525 37.9846C3.87027 37.7589 3.94574 37.5329 4.01986 37.3069C4.22964 36.6805 4.46572 36.0919 4.76303 35.5041C4.89683 35.2357 5.00409 34.9623 5.10678 34.6799C6.6566 30.6387 8.87857 26.7937 11.3968 23.3166C11.4504 23.2425 11.5038 23.1683 11.5589 23.092C11.9233 22.591 12.2972 22.0979 12.6751 21.6076C12.7372 21.5265 12.7997 21.4451 12.8636 21.3615C13.8318 20.1001 14.8542 18.9114 15.931 17.7473C16.1996 17.4537 16.4595 17.1528 16.7191 16.8508C17.6012 15.8375 18.5349 14.8578 19.5433 13.9768C19.7809 13.7688 20.015 13.5578 20.2484 13.3449C28.5883 5.76867 39.7639 -0.045175 51.0609 0.00119616C51.3765 0.00102384 51.6925 0.000721989 52.0081 0.0002196C52.6893 -0.0004733 53.371 0.000554044 54.0521 0.00217272ZM36.474 50.5119C34.7009 50.5092 32.9119 50.4493 31.1703 50.8449C31.0002 50.884 30.9998 50.8839 30.8333 50.9221C29.26 51.2357 27.7808 51.6843 26.3011 52.3196C25.9658 52.4678 25.6323 52.6151 25.2904 52.7463C24.9435 52.874 24.6116 53 24.2913 53.1887C24.1679 53.2674 24.0478 53.3437 23.9281 53.4201C20.2986 55.7039 15.6976 59.0242 14.0658 63.428C13.5543 64.8081 12.9432 66.1746 12.5208 67.6662C12.4755 67.8311 12.432 67.9916 12.388 68.1516C11.5837 70.9847 11.4673 73.8355 11.4837 76.7698C11.4866 77.2574 11.4881 77.745 11.4886 78.2326C11.4895 79.1567 11.4916 80.081 11.4954 81.0051C11.4999 82.0634 11.5023 83.1216 11.5042 84.1799C11.5084 86.4587 11.5157 88.738 11.5247 91.0168C11.7803 91.0168 11.7808 91.0162 12.057 90.7385C15.643 86.9066 21.0719 83.9726 25.9173 82.3196C26.1498 82.241 26.3821 82.1589 26.6136 82.0774C27.0193 81.8981 27.4134 81.7125 27.8363 81.5813C28.3315 81.4556 28.8192 81.3234 29.3011 81.1506C31.7328 80.259 34.2618 79.7373 36.8011 79.2912C37.068 79.2451 37.335 79.1988 37.6019 79.1526C42.0568 78.3576 46.5147 78.2058 51.0267 78.2033C51.7415 78.203 52.4564 78.2012 53.1712 78.1985C54.5283 78.1932 55.8854 78.1892 57.2425 78.1867C59.6959 78.1824 62.1495 78.1753 64.6029 78.1672C65.4658 78.1643 66.3288 78.1618 67.1917 78.1604C67.7342 78.1595 68.2772 78.1579 68.8197 78.1565C69.0726 78.1557 69.3255 78.1551 69.5785 78.1545C71.203 78.1536 72.8373 78.1782 74.4486 77.9299C74.5929 77.9026 74.7333 77.8763 74.8734 77.8498C75.1196 77.8034 75.3658 77.7566 75.6117 77.7082C75.6983 77.691 75.7825 77.6741 75.8665 77.6574C77.8886 77.2631 80.0866 76.9362 81.973 76.0774C82.3217 75.9185 82.6036 75.8674 82.9876 75.719C83.4985 75.4731 83.7502 75.3447 84.2728 75.1506C88.7347 73.0616 94.0665 69.4549 96.0726 64.6164C96.3008 63.9751 96.733 63.4281 97.1165 62.7053C97.3083 62.3768 97.4417 62.0441 97.5804 61.7024C97.9242 61.124 98.1374 60.6641 98.2923 60.0012C98.3738 59.636 98.4511 59.2777 98.5716 58.924C99.36 56.9122 99.6491 54.6741 99.641 52.5158C99.6388 52.295 99.6392 52.2948 99.637 52.0783C99.6344 51.5617 99.6313 51.0451 99.6263 50.5285C93.4649 50.5263 87.3033 50.5239 81.1419 50.5227C81.047 50.5227 80.9548 50.5227 80.8626 50.5227C78.8546 50.5223 76.8463 50.522 74.8382 50.5217C73.8524 50.5215 72.8661 50.5209 71.8802 50.5207C71.7791 50.5207 71.6805 50.5207 71.5824 50.5207C68.3998 50.5202 65.2171 50.519 62.0345 50.5178C58.7578 50.5166 55.4811 50.5161 52.2044 50.5158H50.5384C49.074 50.5157 47.6092 50.5147 46.1449 50.5139C44.7482 50.5131 43.3511 50.5128 41.9544 50.5129C41.1478 50.513 40.3412 50.5135 39.5345 50.5129C38.7876 50.5123 38.0403 50.5116 37.2933 50.5119C37.0203 50.5121 36.747 50.5119 36.474 50.5119Z" fill="#2B7FFF"/>
</svg>
